Coordinates
version=1
nRows=22
nColumns=18
inDegrees=yes

Units are S.I. units (second, meters, Newtons, ...)
If the header above contains a line with 'inDegrees', this indicates whether rotational values are in degrees (yes) or radians (no).

endheader
time	ground_thorax_rot_x	ground_thorax_rot_y	ground_thorax_rot_z	ground_thorax_tx	ground_thorax_ty	ground_thorax_tz	clav_prot	clav_elev	scapula_abduction	scapula_elevation	scapula_upward_rot	scapula_winging	plane_elv	shoulder_elv	axial_rot	elbow_flexion	pro_sup
      2.07000000	     -0.24246542	      3.25077984	     -7.72363939	     -0.00380375	      0.00638924	     -0.00760210	    -37.99940206	      3.78824606	    -24.59046030	     -4.13290342	     36.49966558	     -5.94957545	      1.30559602	     57.68726618	     -7.77751295	      0.00000000	     34.32000000
      2.08000000	     -0.19034224	      3.21172371	     -7.82010730	     -0.00379621	      0.00634248	     -0.00762910	    -38.01270090	      3.86673873	    -24.43019331	     -4.12001162	     36.77684826	     -6.03446190	      1.68347650	     58.28103476	     -7.77006731	      0.00000000	     34.32000000
      2.09000000	     -0.33598366	      3.05068308	     -7.76430863	     -0.00379040	      0.00630280	     -0.00767097	    -37.97823663	      4.02117680	    -24.15632726	     -4.06215342	     37.14080265	     -6.13838264	      2.02886714	     58.66565006	     -7.83384274	      0.00000000	     34.32000000
      2.10000000	     -0.49817457	      3.08572583	     -7.74043945	     -0.00384461	      0.00638575	     -0.00790373	    -38.03443682	      4.05778283	    -23.99799760	     -4.09081938	     37.48327119	     -6.24056209	      2.24456310	     59.09729768	     -7.82406749	      0.00000000	     34.32000000
      2.11000000	     -0.48032581	      3.10635083	     -7.79221604	     -0.00376627	      0.00635960	     -0.00797953	    -38.06853070	      4.14056511	    -23.86099716	     -4.07693330	     37.77287350	     -6.33675761	      2.54999969	     59.66698900	     -7.80651171	      0.00000000	     34.32000000
      2.12000000	     -0.42778028	      3.16753215	     -7.80343035	     -0.00369997	      0.00635458	     -0.00798334	    -38.10140455	      4.20751843	    -23.78197850	     -4.06143558	     37.97589641	     -6.41074263	      2.85850345	     60.24151351	     -7.78249240	      0.00000000	     34.32000000
      2.13000000	     -0.39106644	      3.21452236	     -7.82056041	     -0.00367884	      0.00629925	     -0.00793951	    -38.12108227	      4.29377837	    -23.74694135	     -4.02032382	     38.10242410	     -6.47061351	      3.18807740	     60.82640050	     -7.76618894	      0.00000000	     34.32000000
      2.14000000	     -0.46382677	      3.22225241	     -7.79604594	     -0.00375191	      0.00630062	     -0.00796204	    -38.16812248	      4.33713582	    -23.66484426	     -4.02524865	     38.32713080	     -6.54728977	      3.41932788	     61.30308771	     -7.76550168	      0.00000000	     34.32000000
      2.15000000	     -0.59127620	      3.20223965	     -7.76577875	     -0.00382671	      0.00632119	     -0.00809439	    -38.23906388	      4.36909264	    -23.54460669	     -4.05275331	     38.64533041	     -6.64810972	      3.61362374	     61.78040496	     -7.77117474	      0.00000000	     34.32000000
      2.16000000	     -0.66488190	      3.16164054	     -7.80504948	     -0.00380550	      0.00628066	     -0.00824730	    -38.30112529	      4.42070260	    -23.37995501	     -4.07181354	     39.01218262	     -6.75939136	      3.81937877	     62.33089529	     -7.78750971	      0.00000000	     34.32000000
      2.17000000	     -0.69860686	      3.11513460	     -7.83810522	     -0.00375872	      0.00625191	     -0.00830070	    -38.33334040	      4.50276830	    -23.20709924	     -4.06146673	     39.34220824	     -6.85937454	      4.02939666	     62.90216478	     -7.80258519	      0.00000000	     34.32000000
      2.18000000	     -0.67560934	      3.07547720	     -7.85059808	     -0.00377231	      0.00628335	     -0.00821591	    -38.31324720	      4.62906957	    -23.05195194	     -4.00081886	     39.56229961	     -6.92921518	      4.24297307	     63.49940454	     -7.78965869	      0.00000000	     34.32000000
      2.19000000	     -0.59116566	      2.98515883	     -7.88417223	     -0.00380346	      0.00625932	     -0.00803723	    -38.25113719	      4.78491075	    -22.88962582	     -3.90765879	     39.71967225	     -6.97737189	      4.50614735	     64.17545130	     -7.76338517	      0.00000000	     34.32000000
      2.20000000	     -0.62383076	      2.85016913	     -7.84828292	     -0.00383311	      0.00625005	     -0.00800212	    -38.20001579	      4.88103105	    -22.71811436	     -3.85794480	     39.88361308	     -7.01272946	      4.79948577	     64.74501711	     -7.76348672	      0.00000000	     34.32000000
      2.21000000	     -0.78780450	      2.79153967	     -7.80345012	     -0.00382336	      0.00620345	     -0.00814237	    -38.26251637	      4.88697400	    -22.59777726	     -3.89620953	     40.17012619	     -7.09338696	      4.98448595	     65.15365560	     -7.77105157	      0.00000000	     34.32000000
      2.22000000	     -0.83570409	      2.73119714	     -7.82588824	     -0.00381147	      0.00621121	     -0.00822765	    -38.35086023	      4.88495936	    -22.41947907	     -3.95741713	     40.58045448	     -7.20421505	      5.20404044	     65.71037162	     -7.80739167	      0.00000000	     34.32000000
      2.23000000	     -0.95530854	      2.73307176	     -7.77327961	     -0.00388432	      0.00629385	     -0.00826399	    -38.43623713	      4.92051928	    -22.25545948	     -3.99020972	     40.98294801	     -7.32308171	      5.39742709	     66.21398123	     -7.83493188	      0.00000000	     34.32000000
      2.24000000	     -0.82446842	      2.47234943	     -7.78066367	     -0.00380225	      0.00619524	     -0.00802404	    -38.29617836	      5.31573956	    -21.90828104	     -3.74645204	     41.33035710	     -7.43861719	      5.76601679	     66.89743100	     -8.35158381	      0.00000000	     34.32000000
      2.25000000	     -0.85840593	      2.33014368	     -7.80387248	     -0.00381065	      0.00619696	     -0.00799498	    -38.22037250	      5.47867098	    -21.75111929	     -3.64223425	     41.45539226	     -7.47368010	      6.22975520	     67.46955616	     -8.46819876	      0.00000000	     34.32000000
      2.26000000	     -0.94592055	      2.30320020	     -7.81736820	     -0.00384816	      0.00621660	     -0.00813416	    -38.24126971	      5.50000975	    -21.60617863	     -3.65821201	     41.69427632	     -7.52950022	      6.49638451	     67.89611723	     -8.46894016	      0.00000000	     34.32000000
      2.27000000	     -1.01427654	      2.26105711	     -7.81607277	     -0.00388492	      0.00618369	     -0.00819676	    -38.29573302	      5.48531169	    -21.43298495	     -3.71207505	     42.02040462	     -7.60387631	      6.71777614	     68.38885422	     -8.46012363	      0.00000000	     34.32000000
      2.28000000	     -1.11726442	      2.25085512	     -7.78893667	     -0.00390575	      0.00615198	     -0.00829642	    -38.38776872	      5.44756469	    -21.25282223	     -3.79299344	     42.42049815	     -7.69969389	      6.86542458	     68.88598686	     -8.45153931	      0.00000000	     34.32000000
